<?xml version="1.0" encoding="UTF-8"?>
<svg xmlns="http://www.w3.org/2000/svg"
     width="1600" height="1100"
     viewBox="0 0 1600 1100">
  
  
  <rect width="1600" height="1100" fill="#F7F4EC"/>
  <rect x="800" y="580" width="800" height="520" fill="#182126"/>

  
    <g transform="translate(120,120) scale(1.25)">
      <path
        d="M78 30 H164 Q196 30 196 62 V174 H168 V220 H78
           Q42 220 42 184 V66 Q42 30 78 30 Z"
        fill="none"
        stroke="#20292E"
        stroke-width="18"
        stroke-linecap="round"
        stroke-linejoin="round"/>
      <path
        d="M168 174 H222 L168 228 Z"
        fill="#8BA393"/>
      <line
        x1="82" y1="154" x2="82" y2="192"
        stroke="#8BA393"
        stroke-width="14"
        stroke-linecap="round"/>
    </g>
    
  <path d="M536 763V-61H652V12H798V-46H919V763ZM652 125V651H798V125ZM130 849C110 735 72 619 18 547C45 532 93 498 115 478C140 515 163 561 183 612H223V478V453H37V340H215C198 223 152 98 22 4C47 -14 92 -62 108 -87C205 -16 263 78 298 176C347 115 405 39 437 -13L518 89C491 122 380 248 329 299L336 340H509V453H344V477V612H485V723H220C230 757 238 791 245 826Z" fill="#20292E" transform="translate(500.000,315.000) scale(0.18000000,-0.18000000)"/>
<path d="M55 794V690H265V631H378V603H136V505H378V449H54V346H399C281 292 152 251 20 221C39 196 68 144 80 119C134 134 187 150 240 168V-88H359V-62H744V-87H863V292H529C561 309 593 327 623 346H952V449H768C821 492 870 539 912 590L813 646C785 611 753 578 718 547V603H496V659H382V690H611V631H728V690H945V794H728V850H611V794H382V850H265V794ZM496 449V505H667C642 486 616 467 588 449ZM359 79H744V28H359ZM359 154V202H744V154Z" fill="#20292E" transform="translate(695.000,315.000) scale(0.18000000,-0.18000000)"/>
  <path d="M197 0H339V566H684C998 566 1164 766 1164 1029C1164 1290 998 1490 683 1490H197ZM339 693V1363H677C909 1363 1023 1222 1023 1029C1023 835 909 693 678 693Z" fill="#8BA393" transform="translate(510.000,415.000) scale(0.03515625,-0.03515625)"/>
<path d="M624 -24C849 -24 1001 98 1052 239L923 280C882 182 782 98 625 98C399 98 256 264 250 518H1079V577C1079 957 848 1133 603 1133C311 1133 113 890 113 552C113 213 311 -24 624 -24ZM250 635C262 841 401 1011 603 1011C803 1011 928 852 942 635Z" fill="#8BA393" transform="translate(569.211,415.000) scale(0.03515625,-0.03515625)"/>
<path d="M307 697C307 889 439 1009 616 1009C788 1009 899 896 899 713V0H1034V723C1034 988 879 1133 652 1133C499 1133 371 1067 303 912L302 1118H171V0H307Z" fill="#8BA393" transform="translate(624.941,415.000) scale(0.03515625,-0.03515625)"/>
<path d="M197 0H333V946C333 1054 330 1206 328 1333C381 1182 433 1034 469 946L859 0H984L1371 946C1407 1036 1462 1187 1511 1334C1509 1199 1507 1051 1507 946V0H1647V1490H1445L1032 468C1001 391 958 262 923 156C889 265 845 393 815 468L399 1490H197Z" fill="#8BA393" transform="translate(681.305,415.000) scale(0.03515625,-0.03515625)"/>
<path d="M465 -25C647 -25 762 74 811 177H821V0H954V759C954 1055 729 1133 554 1133C380 1133 204 1062 129 881L259 837C298 930 397 1012 557 1012C724 1012 819 921 819 771V745C819 660 712 658 527 636C275 605 97 534 97 313C97 96 262 -25 465 -25ZM485 96C340 96 233 173 233 307C233 439 341 497 528 520C617 531 780 551 819 588V429C819 247 688 96 485 96Z" fill="#8BA393" transform="translate(760.133,415.000) scale(0.03515625,-0.03515625)"/>
<path d="M171 0H307V717C307 882 433 1002 606 1002C642 1002 676 997 686 995V1131C668 1132 639 1133 617 1133C478 1133 358 1058 313 944H303V1118H171Z" fill="#8BA393" transform="translate(813.684,415.000) scale(0.03515625,-0.03515625)"/>
<path d="M171 0H307V429L434 549L866 0H1040L536 637L1011 1118H840L323 594H307V1490H171Z" fill="#8BA393" transform="translate(853.559,415.000) scale(0.03515625,-0.03515625)"/>

  <rect x="95" y="650" width="300" height="300" rx="72" fill="#FFFFFF" opacity="0.68"/>
  
    <g transform="translate(117,672) scale(1.0)">
      <path
        d="M78 30 H164 Q196 30 196 62 V174 H168 V220 H78
           Q42 220 42 184 V66 Q42 30 78 30 Z"
        fill="none"
        stroke="#20292E"
        stroke-width="18"
        stroke-linecap="round"
        stroke-linejoin="round"/>
      <path
        d="M168 174 H222 L168 228 Z"
        fill="#8BA393"/>
      <line
        x1="82" y1="154" x2="82" y2="192"
        stroke="#8BA393"
        stroke-width="14"
        stroke-linecap="round"/>
    </g>
    

  
    <g transform="translate(900,700) scale(1.0)">
      <path
        d="M78 30 H164 Q196 30 196 62 V174 H168 V220 H78
           Q42 220 42 184 V66 Q42 30 78 30 Z"
        fill="none"
        stroke="#F3F1EB"
        stroke-width="18"
        stroke-linecap="round"
        stroke-linejoin="round"/>
      <path
        d="M168 174 H222 L168 228 Z"
        fill="#8BA393"/>
      <line
        x1="82" y1="154" x2="82" y2="192"
        stroke="#8BA393"
        stroke-width="14"
        stroke-linecap="round"/>
    </g>
    
  <path d="M536 763V-61H652V12H798V-46H919V763ZM652 125V651H798V125ZM130 849C110 735 72 619 18 547C45 532 93 498 115 478C140 515 163 561 183 612H223V478V453H37V340H215C198 223 152 98 22 4C47 -14 92 -62 108 -87C205 -16 263 78 298 176C347 115 405 39 437 -13L518 89C491 122 380 248 329 299L336 340H509V453H344V477V612H485V723H220C230 757 238 791 245 826Z" fill="#F3F1EB" transform="translate(1195.000,840.000) scale(0.13500000,-0.13500000)"/>
<path d="M55 794V690H265V631H378V603H136V505H378V449H54V346H399C281 292 152 251 20 221C39 196 68 144 80 119C134 134 187 150 240 168V-88H359V-62H744V-87H863V292H529C561 309 593 327 623 346H952V449H768C821 492 870 539 912 590L813 646C785 611 753 578 718 547V603H496V659H382V690H611V631H728V690H945V794H728V850H611V794H382V850H265V794ZM496 449V505H667C642 486 616 467 588 449ZM359 79H744V28H359ZM359 154V202H744V154Z" fill="#F3F1EB" transform="translate(1342.000,840.000) scale(0.13500000,-0.13500000)"/>
  <path d="M197 0H339V566H684C998 566 1164 766 1164 1029C1164 1290 998 1490 683 1490H197ZM339 693V1363H677C909 1363 1023 1222 1023 1029C1023 835 909 693 678 693Z" fill="#8BA393" transform="translate(1205.000,915.000) scale(0.02539062,-0.02539062)"/>
<path d="M624 -24C849 -24 1001 98 1052 239L923 280C882 182 782 98 625 98C399 98 256 264 250 518H1079V577C1079 957 848 1133 603 1133C311 1133 113 890 113 552C113 213 311 -24 624 -24ZM250 635C262 841 401 1011 603 1011C803 1011 928 852 942 635Z" fill="#8BA393" transform="translate(1247.652,915.000) scale(0.02539062,-0.02539062)"/>
<path d="M307 697C307 889 439 1009 616 1009C788 1009 899 896 899 713V0H1034V723C1034 988 879 1133 652 1133C499 1133 371 1067 303 912L302 1118H171V0H307Z" fill="#8BA393" transform="translate(1287.791,915.000) scale(0.02539062,-0.02539062)"/>
<path d="M197 0H333V946C333 1054 330 1206 328 1333C381 1182 433 1034 469 946L859 0H984L1371 946C1407 1036 1462 1187 1511 1334C1509 1199 1507 1051 1507 946V0H1647V1490H1445L1032 468C1001 391 958 262 923 156C889 265 845 393 815 468L399 1490H197Z" fill="#8BA393" transform="translate(1328.387,915.000) scale(0.02539062,-0.02539062)"/>
<path d="M465 -25C647 -25 762 74 811 177H821V0H954V759C954 1055 729 1133 554 1133C380 1133 204 1062 129 881L259 837C298 930 397 1012 557 1012C724 1012 819 921 819 771V745C819 660 712 658 527 636C275 605 97 534 97 313C97 96 262 -25 465 -25ZM485 96C340 96 233 173 233 307C233 439 341 497 528 520C617 531 780 551 819 588V429C819 247 688 96 485 96Z" fill="#8BA393" transform="translate(1385.207,915.000) scale(0.02539062,-0.02539062)"/>
<path d="M171 0H307V717C307 882 433 1002 606 1002C642 1002 676 997 686 995V1131C668 1132 639 1133 617 1133C478 1133 358 1058 313 944H303V1118H171Z" fill="#8BA393" transform="translate(1423.771,915.000) scale(0.02539062,-0.02539062)"/>
<path d="M171 0H307V429L434 549L866 0H1040L536 637L1011 1118H840L323 594H307V1490H171Z" fill="#8BA393" transform="translate(1452.459,915.000) scale(0.02539062,-0.02539062)"/>

  <line x1="95" y1="555" x2="1505" y2="555" stroke="#D8D2C7" stroke-width="2"/>
  <circle cx="515" cy="790" r="26" fill="#20292E"/>
  <circle cx="590" cy="790" r="26" fill="#8BA393"/>
  <circle cx="665" cy="790" r="26" fill="#182126"/>
  <circle cx="740" cy="790" r="26" fill="#F3F1EB" stroke="#D8D2C7" stroke-width="2"/>

</svg>
